<mxfile host="app.diagrams.net" agent="Mozilla/5.0 (Macintosh; Intel Mac OS X 10_15_7) AppleWebKit/537.36 (KHTML, like Gecko) Chrome/141.0.0.0 Safari/537.36" version="28.2.7">
  <diagram name="Page-1" id="74e2e168-ea6b-b213-b513-2b3c1d86103e">
    <mxGraphModel grid="0" page="0" gridSize="10" guides="1" tooltips="1" connect="1" arrows="1" fold="1" pageScale="1" pageWidth="1100" pageHeight="850" background="none" math="0" shadow="0">
      <root>
        <mxCell id="0" />
        <mxCell id="1" parent="0" />
        <mxCell id="f1sgb6Pg4Vq6_ZcBjjM3-3" value="" style="edgeStyle=orthogonalEdgeStyle;rounded=0;orthogonalLoop=1;jettySize=auto;html=1;" edge="1" parent="1" source="f1sgb6Pg4Vq6_ZcBjjM3-1" target="f1sgb6Pg4Vq6_ZcBjjM3-2">
          <mxGeometry relative="1" as="geometry" />
        </mxCell>
        <mxCell id="f1sgb6Pg4Vq6_ZcBjjM3-1" value="Start" style="ellipse;whiteSpace=wrap;html=1;" vertex="1" parent="1">
          <mxGeometry y="-770" width="80" height="50" as="geometry" />
        </mxCell>
        <mxCell id="f1sgb6Pg4Vq6_ZcBjjM3-5" value="" style="edgeStyle=orthogonalEdgeStyle;rounded=0;orthogonalLoop=1;jettySize=auto;html=1;" edge="1" parent="1" source="f1sgb6Pg4Vq6_ZcBjjM3-2" target="f1sgb6Pg4Vq6_ZcBjjM3-4">
          <mxGeometry relative="1" as="geometry" />
        </mxCell>
        <mxCell id="f1sgb6Pg4Vq6_ZcBjjM3-2" value="User opens application" style="whiteSpace=wrap;html=1;" vertex="1" parent="1">
          <mxGeometry x="110" y="-775" width="120" height="60" as="geometry" />
        </mxCell>
        <mxCell id="f1sgb6Pg4Vq6_ZcBjjM3-7" value="" style="edgeStyle=orthogonalEdgeStyle;rounded=0;orthogonalLoop=1;jettySize=auto;html=1;entryX=0;entryY=0.5;entryDx=0;entryDy=0;" edge="1" parent="1" source="f1sgb6Pg4Vq6_ZcBjjM3-4" target="f1sgb6Pg4Vq6_ZcBjjM3-67">
          <mxGeometry relative="1" as="geometry">
            <mxPoint x="480" y="-745.0000000000002" as="targetPoint" />
          </mxGeometry>
        </mxCell>
        <mxCell id="f1sgb6Pg4Vq6_ZcBjjM3-11" value="Yes" style="edgeLabel;html=1;align=center;verticalAlign=middle;resizable=0;points=[];" connectable="0" vertex="1" parent="f1sgb6Pg4Vq6_ZcBjjM3-7">
          <mxGeometry x="-0.0968" relative="1" as="geometry">
            <mxPoint x="-26" as="offset" />
          </mxGeometry>
        </mxCell>
        <mxCell id="f1sgb6Pg4Vq6_ZcBjjM3-9" value="" style="edgeStyle=orthogonalEdgeStyle;rounded=0;orthogonalLoop=1;jettySize=auto;html=1;" edge="1" parent="1" source="f1sgb6Pg4Vq6_ZcBjjM3-4" target="f1sgb6Pg4Vq6_ZcBjjM3-8">
          <mxGeometry relative="1" as="geometry" />
        </mxCell>
        <mxCell id="f1sgb6Pg4Vq6_ZcBjjM3-10" value="No" style="edgeLabel;html=1;align=center;verticalAlign=middle;resizable=0;points=[];" connectable="0" vertex="1" parent="f1sgb6Pg4Vq6_ZcBjjM3-9">
          <mxGeometry x="-0.1014" y="-2" relative="1" as="geometry">
            <mxPoint as="offset" />
          </mxGeometry>
        </mxCell>
        <mxCell id="f1sgb6Pg4Vq6_ZcBjjM3-4" value="Login?" style="rhombus;whiteSpace=wrap;html=1;" vertex="1" parent="1">
          <mxGeometry x="280" y="-785" width="110" height="80" as="geometry" />
        </mxCell>
        <mxCell id="f1sgb6Pg4Vq6_ZcBjjM3-15" value="" style="edgeStyle=orthogonalEdgeStyle;rounded=0;orthogonalLoop=1;jettySize=auto;html=1;exitX=1;exitY=0.5;exitDx=0;exitDy=0;" edge="1" parent="1" source="f1sgb6Pg4Vq6_ZcBjjM3-67" target="f1sgb6Pg4Vq6_ZcBjjM3-14">
          <mxGeometry relative="1" as="geometry">
            <mxPoint x="600" y="-745.0000000000002" as="sourcePoint" />
          </mxGeometry>
        </mxCell>
        <mxCell id="f1sgb6Pg4Vq6_ZcBjjM3-8" value="Register new account" style="whiteSpace=wrap;html=1;" vertex="1" parent="1">
          <mxGeometry x="275" y="-640" width="120" height="60" as="geometry" />
        </mxCell>
        <mxCell id="f1sgb6Pg4Vq6_ZcBjjM3-20" value="" style="edgeStyle=orthogonalEdgeStyle;rounded=0;orthogonalLoop=1;jettySize=auto;html=1;exitX=0.5;exitY=1;exitDx=0;exitDy=0;" edge="1" parent="1" source="f1sgb6Pg4Vq6_ZcBjjM3-14" target="f1sgb6Pg4Vq6_ZcBjjM3-19">
          <mxGeometry relative="1" as="geometry">
            <mxPoint x="740" y="-690" as="sourcePoint" />
            <Array as="points" />
          </mxGeometry>
        </mxCell>
        <mxCell id="f1sgb6Pg4Vq6_ZcBjjM3-22" value="No" style="edgeLabel;html=1;align=center;verticalAlign=middle;resizable=0;points=[];" connectable="0" vertex="1" parent="f1sgb6Pg4Vq6_ZcBjjM3-20">
          <mxGeometry x="-0.0482" y="1" relative="1" as="geometry">
            <mxPoint x="-1" y="-7" as="offset" />
          </mxGeometry>
        </mxCell>
        <mxCell id="f1sgb6Pg4Vq6_ZcBjjM3-24" value="" style="edgeStyle=orthogonalEdgeStyle;rounded=0;orthogonalLoop=1;jettySize=auto;html=1;" edge="1" parent="1" source="f1sgb6Pg4Vq6_ZcBjjM3-14" target="f1sgb6Pg4Vq6_ZcBjjM3-16">
          <mxGeometry relative="1" as="geometry" />
        </mxCell>
        <mxCell id="f1sgb6Pg4Vq6_ZcBjjM3-25" value="Yes" style="edgeLabel;html=1;align=center;verticalAlign=middle;resizable=0;points=[];" connectable="0" vertex="1" parent="f1sgb6Pg4Vq6_ZcBjjM3-24">
          <mxGeometry x="0.0159" relative="1" as="geometry">
            <mxPoint as="offset" />
          </mxGeometry>
        </mxCell>
        <mxCell id="f1sgb6Pg4Vq6_ZcBjjM3-14" value="Valid Credentials?" style="rhombus;whiteSpace=wrap;html=1;" vertex="1" parent="1">
          <mxGeometry x="650" y="-787.5" width="115" height="85" as="geometry" />
        </mxCell>
        <mxCell id="f1sgb6Pg4Vq6_ZcBjjM3-73" value="" style="edgeStyle=orthogonalEdgeStyle;rounded=0;orthogonalLoop=1;jettySize=auto;html=1;" edge="1" parent="1" source="f1sgb6Pg4Vq6_ZcBjjM3-16" target="f1sgb6Pg4Vq6_ZcBjjM3-72">
          <mxGeometry relative="1" as="geometry" />
        </mxCell>
        <mxCell id="f1sgb6Pg4Vq6_ZcBjjM3-16" value="User lands on dashboard / home screen" style="whiteSpace=wrap;html=1;" vertex="1" parent="1">
          <mxGeometry x="849" y="-775" width="120" height="60" as="geometry" />
        </mxCell>
        <mxCell id="f1sgb6Pg4Vq6_ZcBjjM3-19" value="Invalid credentials -&amp;nbsp;&lt;div&gt;system reentry prompt&lt;/div&gt;" style="whiteSpace=wrap;html=1;shape=parallelogram;perimeter=parallelogramPerimeter;fixedSize=1;" vertex="1" parent="1">
          <mxGeometry x="634" y="-620" width="149" height="60" as="geometry" />
        </mxCell>
        <mxCell id="f1sgb6Pg4Vq6_ZcBjjM3-21" value="" style="endArrow=classic;html=1;rounded=0;exitX=0;exitY=0.5;exitDx=0;exitDy=0;edgeStyle=orthogonalEdgeStyle;entryX=0.5;entryY=1;entryDx=0;entryDy=0;" edge="1" parent="1" source="f1sgb6Pg4Vq6_ZcBjjM3-19" target="f1sgb6Pg4Vq6_ZcBjjM3-67">
          <mxGeometry width="50" height="50" relative="1" as="geometry">
            <mxPoint x="590" y="-620" as="sourcePoint" />
            <mxPoint x="503" y="-695" as="targetPoint" />
          </mxGeometry>
        </mxCell>
        <mxCell id="f1sgb6Pg4Vq6_ZcBjjM3-23" value="" style="endArrow=classic;html=1;rounded=0;exitX=1;exitY=0.5;exitDx=0;exitDy=0;edgeStyle=orthogonalEdgeStyle;entryX=0;entryY=0.75;entryDx=0;entryDy=0;" edge="1" parent="1" source="f1sgb6Pg4Vq6_ZcBjjM3-8" target="f1sgb6Pg4Vq6_ZcBjjM3-67">
          <mxGeometry width="50" height="50" relative="1" as="geometry">
            <mxPoint x="520" y="-570" as="sourcePoint" />
            <mxPoint x="498" y="-673" as="targetPoint" />
            <Array as="points">
              <mxPoint x="427" y="-610" />
              <mxPoint x="427" y="-731" />
            </Array>
          </mxGeometry>
        </mxCell>
        <mxCell id="f1sgb6Pg4Vq6_ZcBjjM3-27" value="Program Workflow" style="swimlane;childLayout=stackLayout;resizeParent=1;resizeParentMax=0;horizontal=0;startSize=20;horizontalStack=0;html=1;" vertex="1" parent="1">
          <mxGeometry x="-83" y="-808" width="1225" height="1405" as="geometry" />
        </mxCell>
        <mxCell id="f1sgb6Pg4Vq6_ZcBjjM3-28" value="Authentication &amp;amp; Access" style="swimlane;startSize=20;horizontal=0;html=1;" vertex="1" parent="f1sgb6Pg4Vq6_ZcBjjM3-27">
          <mxGeometry x="20" width="1205" height="300" as="geometry" />
        </mxCell>
        <mxCell id="f1sgb6Pg4Vq6_ZcBjjM3-67" value="Enter credentials" style="shape=parallelogram;perimeter=parallelogramPerimeter;whiteSpace=wrap;html=1;fixedSize=1;" vertex="1" parent="f1sgb6Pg4Vq6_ZcBjjM3-28">
          <mxGeometry x="515" y="33" width="120" height="60" as="geometry" />
        </mxCell>
        <mxCell id="f1sgb6Pg4Vq6_ZcBjjM3-72" value="End" style="ellipse;whiteSpace=wrap;html=1;" vertex="1" parent="f1sgb6Pg4Vq6_ZcBjjM3-28">
          <mxGeometry x="1051" y="38.5" width="80" height="49" as="geometry" />
        </mxCell>
        <mxCell id="f1sgb6Pg4Vq6_ZcBjjM3-29" value="Weekly Report Entry" style="swimlane;startSize=20;horizontal=0;html=1;" vertex="1" parent="f1sgb6Pg4Vq6_ZcBjjM3-27">
          <mxGeometry x="20" y="300" width="1205" height="475" as="geometry" />
        </mxCell>
        <mxCell id="f1sgb6Pg4Vq6_ZcBjjM3-35" value="" style="edgeStyle=orthogonalEdgeStyle;rounded=0;orthogonalLoop=1;jettySize=auto;html=1;" edge="1" parent="f1sgb6Pg4Vq6_ZcBjjM3-29" source="f1sgb6Pg4Vq6_ZcBjjM3-33" target="f1sgb6Pg4Vq6_ZcBjjM3-34">
          <mxGeometry relative="1" as="geometry" />
        </mxCell>
        <mxCell id="f1sgb6Pg4Vq6_ZcBjjM3-33" value="Start&lt;div&gt;(at Dashboard)&lt;/div&gt;" style="ellipse;whiteSpace=wrap;html=1;" vertex="1" parent="f1sgb6Pg4Vq6_ZcBjjM3-29">
          <mxGeometry x="42.5" y="30" width="95" height="56" as="geometry" />
        </mxCell>
        <mxCell id="f1sgb6Pg4Vq6_ZcBjjM3-37" value="" style="edgeStyle=orthogonalEdgeStyle;rounded=0;orthogonalLoop=1;jettySize=auto;html=1;" edge="1" parent="f1sgb6Pg4Vq6_ZcBjjM3-29" source="f1sgb6Pg4Vq6_ZcBjjM3-34" target="f1sgb6Pg4Vq6_ZcBjjM3-36">
          <mxGeometry relative="1" as="geometry" />
        </mxCell>
        <mxCell id="f1sgb6Pg4Vq6_ZcBjjM3-34" value="User selects project" style="whiteSpace=wrap;html=1;shape=parallelogram;perimeter=parallelogramPerimeter;fixedSize=1;" vertex="1" parent="f1sgb6Pg4Vq6_ZcBjjM3-29">
          <mxGeometry x="151" y="28" width="145" height="60" as="geometry" />
        </mxCell>
        <mxCell id="f1sgb6Pg4Vq6_ZcBjjM3-43" value="" style="edgeStyle=orthogonalEdgeStyle;rounded=0;orthogonalLoop=1;jettySize=auto;html=1;" edge="1" parent="f1sgb6Pg4Vq6_ZcBjjM3-29" source="f1sgb6Pg4Vq6_ZcBjjM3-36" target="f1sgb6Pg4Vq6_ZcBjjM3-42">
          <mxGeometry relative="1" as="geometry" />
        </mxCell>
        <mxCell id="f1sgb6Pg4Vq6_ZcBjjM3-36" value="User clicks &quot;add weekly report&quot;" style="whiteSpace=wrap;html=1;shape=parallelogram;perimeter=parallelogramPerimeter;fixedSize=1;" vertex="1" parent="f1sgb6Pg4Vq6_ZcBjjM3-29">
          <mxGeometry x="316" y="28" width="120" height="60" as="geometry" />
        </mxCell>
        <mxCell id="f1sgb6Pg4Vq6_ZcBjjM3-45" value="" style="edgeStyle=orthogonalEdgeStyle;rounded=0;orthogonalLoop=1;jettySize=auto;html=1;entryX=0;entryY=0.5;entryDx=0;entryDy=0;" edge="1" parent="f1sgb6Pg4Vq6_ZcBjjM3-29" source="f1sgb6Pg4Vq6_ZcBjjM3-42" target="f1sgb6Pg4Vq6_ZcBjjM3-48">
          <mxGeometry relative="1" as="geometry">
            <mxPoint x="601" y="148" as="targetPoint" />
          </mxGeometry>
        </mxCell>
        <mxCell id="f1sgb6Pg4Vq6_ZcBjjM3-42" value="System loads form" style="whiteSpace=wrap;html=1;" vertex="1" parent="f1sgb6Pg4Vq6_ZcBjjM3-29">
          <mxGeometry x="462" y="28" width="120" height="60" as="geometry" />
        </mxCell>
        <mxCell id="f1sgb6Pg4Vq6_ZcBjjM3-47" value="" style="edgeStyle=orthogonalEdgeStyle;rounded=0;orthogonalLoop=1;jettySize=auto;html=1;" edge="1" parent="f1sgb6Pg4Vq6_ZcBjjM3-29" target="f1sgb6Pg4Vq6_ZcBjjM3-46">
          <mxGeometry relative="1" as="geometry">
            <mxPoint x="763" y="58" as="sourcePoint" />
          </mxGeometry>
        </mxCell>
        <mxCell id="f1sgb6Pg4Vq6_ZcBjjM3-52" value="" style="edgeStyle=orthogonalEdgeStyle;rounded=0;orthogonalLoop=1;jettySize=auto;html=1;" edge="1" parent="f1sgb6Pg4Vq6_ZcBjjM3-29" source="f1sgb6Pg4Vq6_ZcBjjM3-46" target="f1sgb6Pg4Vq6_ZcBjjM3-51">
          <mxGeometry relative="1" as="geometry" />
        </mxCell>
        <mxCell id="f1sgb6Pg4Vq6_ZcBjjM3-46" value="User clicks submit" style="whiteSpace=wrap;html=1;align=center;shape=parallelogram;perimeter=parallelogramPerimeter;fixedSize=1;" vertex="1" parent="f1sgb6Pg4Vq6_ZcBjjM3-29">
          <mxGeometry x="806" y="28" width="128" height="60" as="geometry" />
        </mxCell>
        <mxCell id="f1sgb6Pg4Vq6_ZcBjjM3-50" value="" style="edgeStyle=orthogonalEdgeStyle;rounded=0;orthogonalLoop=1;jettySize=auto;html=1;" edge="1" parent="f1sgb6Pg4Vq6_ZcBjjM3-29" source="f1sgb6Pg4Vq6_ZcBjjM3-48" target="f1sgb6Pg4Vq6_ZcBjjM3-46">
          <mxGeometry relative="1" as="geometry" />
        </mxCell>
        <mxCell id="f1sgb6Pg4Vq6_ZcBjjM3-48" value="&lt;div&gt;&lt;span style=&quot;background-color: transparent; color: light-dark(rgb(0, 0, 0), rgb(255, 255, 255));&quot;&gt;User inputs:&lt;/span&gt;&lt;/div&gt;&lt;div style=&quot;text-align: left;&quot;&gt;&amp;nbsp;- Deliverable(s)&lt;/div&gt;&lt;div style=&quot;text-align: left;&quot;&gt;&amp;nbsp;- Hours spent&lt;/div&gt;&lt;div style=&quot;text-align: left;&quot;&gt;&amp;nbsp;- Narrative summary&lt;/div&gt;&lt;div style=&quot;text-align: left;&quot;&gt;&amp;nbsp;- Associated funder&lt;/div&gt;" style="shape=parallelogram;perimeter=parallelogramPerimeter;whiteSpace=wrap;html=1;fixedSize=1;" vertex="1" parent="f1sgb6Pg4Vq6_ZcBjjM3-29">
          <mxGeometry x="622" y="21" width="145" height="74" as="geometry" />
        </mxCell>
        <mxCell id="f1sgb6Pg4Vq6_ZcBjjM3-54" value="" style="edgeStyle=orthogonalEdgeStyle;rounded=0;orthogonalLoop=1;jettySize=auto;html=1;exitX=1;exitY=0.5;exitDx=0;exitDy=0;entryX=0.5;entryY=0;entryDx=0;entryDy=0;entryPerimeter=0;" edge="1" parent="f1sgb6Pg4Vq6_ZcBjjM3-29" source="f1sgb6Pg4Vq6_ZcBjjM3-51" target="f1sgb6Pg4Vq6_ZcBjjM3-61">
          <mxGeometry relative="1" as="geometry">
            <mxPoint x="1057.0000000000005" y="92" as="sourcePoint" />
            <mxPoint x="137" y="223" as="targetPoint" />
            <Array as="points">
              <mxPoint x="1110" y="58" />
              <mxPoint x="1110" y="211" />
              <mxPoint x="109" y="211" />
            </Array>
          </mxGeometry>
        </mxCell>
        <mxCell id="f1sgb6Pg4Vq6_ZcBjjM3-55" value="Yes" style="edgeLabel;html=1;align=center;verticalAlign=middle;resizable=0;points=[];" connectable="0" vertex="1" parent="f1sgb6Pg4Vq6_ZcBjjM3-54">
          <mxGeometry x="-0.9701" relative="1" as="geometry">
            <mxPoint x="6" as="offset" />
          </mxGeometry>
        </mxCell>
        <mxCell id="f1sgb6Pg4Vq6_ZcBjjM3-57" value="No" style="edgeStyle=orthogonalEdgeStyle;rounded=0;orthogonalLoop=1;jettySize=auto;html=1;" edge="1" parent="f1sgb6Pg4Vq6_ZcBjjM3-29" source="f1sgb6Pg4Vq6_ZcBjjM3-51" target="f1sgb6Pg4Vq6_ZcBjjM3-56">
          <mxGeometry x="-0.2786" relative="1" as="geometry">
            <mxPoint y="1" as="offset" />
          </mxGeometry>
        </mxCell>
        <mxCell id="f1sgb6Pg4Vq6_ZcBjjM3-51" value="Is form valid?" style="rhombus;whiteSpace=wrap;html=1;" vertex="1" parent="f1sgb6Pg4Vq6_ZcBjjM3-29">
          <mxGeometry x="963" y="18" width="91" height="80" as="geometry" />
        </mxCell>
        <mxCell id="f1sgb6Pg4Vq6_ZcBjjM3-56" value="&lt;div style=&quot;&quot;&gt;&lt;span style=&quot;background-color: transparent; color: light-dark(rgb(0, 0, 0), rgb(255, 255, 255));&quot;&gt;System displays error&amp;nbsp;&amp;nbsp;&lt;/span&gt;&lt;/div&gt;&lt;div style=&quot;&quot;&gt;&amp;amp; re-entry prompt&lt;/div&gt;" style="whiteSpace=wrap;html=1;shape=parallelogram;perimeter=parallelogramPerimeter;fixedSize=1;align=center;" vertex="1" parent="f1sgb6Pg4Vq6_ZcBjjM3-29">
          <mxGeometry x="931" y="134" width="157" height="45" as="geometry" />
        </mxCell>
        <mxCell id="f1sgb6Pg4Vq6_ZcBjjM3-59" value="" style="endArrow=classic;html=1;rounded=0;edgeStyle=orthogonalEdgeStyle;entryX=0.25;entryY=1;entryDx=0;entryDy=0;exitX=0;exitY=0.5;exitDx=0;exitDy=0;" edge="1" parent="f1sgb6Pg4Vq6_ZcBjjM3-29" source="f1sgb6Pg4Vq6_ZcBjjM3-56" target="f1sgb6Pg4Vq6_ZcBjjM3-48">
          <mxGeometry width="50" height="50" relative="1" as="geometry">
            <mxPoint x="689" y="170" as="sourcePoint" />
            <mxPoint x="739" y="120" as="targetPoint" />
          </mxGeometry>
        </mxCell>
        <mxCell id="f1sgb6Pg4Vq6_ZcBjjM3-63" value="" style="edgeStyle=orthogonalEdgeStyle;rounded=0;orthogonalLoop=1;jettySize=auto;html=1;" edge="1" parent="f1sgb6Pg4Vq6_ZcBjjM3-29" source="f1sgb6Pg4Vq6_ZcBjjM3-61" target="f1sgb6Pg4Vq6_ZcBjjM3-62">
          <mxGeometry relative="1" as="geometry" />
        </mxCell>
        <mxCell id="f1sgb6Pg4Vq6_ZcBjjM3-61" value="INSERT into weekly_reports table" style="shape=cylinder3;whiteSpace=wrap;html=1;boundedLbl=1;backgroundOutline=1;size=15;" vertex="1" parent="f1sgb6Pg4Vq6_ZcBjjM3-29">
          <mxGeometry x="66" y="242" width="85" height="96" as="geometry" />
        </mxCell>
        <mxCell id="f1sgb6Pg4Vq6_ZcBjjM3-66" value="" style="edgeStyle=orthogonalEdgeStyle;rounded=0;orthogonalLoop=1;jettySize=auto;html=1;" edge="1" parent="f1sgb6Pg4Vq6_ZcBjjM3-29" source="f1sgb6Pg4Vq6_ZcBjjM3-62" target="f1sgb6Pg4Vq6_ZcBjjM3-65">
          <mxGeometry relative="1" as="geometry" />
        </mxCell>
        <mxCell id="f1sgb6Pg4Vq6_ZcBjjM3-62" value="System updates related tables" style="whiteSpace=wrap;html=1;" vertex="1" parent="f1sgb6Pg4Vq6_ZcBjjM3-29">
          <mxGeometry x="213.5" y="260" width="120" height="60" as="geometry" />
        </mxCell>
        <mxCell id="f1sgb6Pg4Vq6_ZcBjjM3-75" value="" style="edgeStyle=orthogonalEdgeStyle;rounded=0;orthogonalLoop=1;jettySize=auto;html=1;" edge="1" parent="f1sgb6Pg4Vq6_ZcBjjM3-29" source="f1sgb6Pg4Vq6_ZcBjjM3-65" target="f1sgb6Pg4Vq6_ZcBjjM3-74">
          <mxGeometry relative="1" as="geometry" />
        </mxCell>
        <mxCell id="f1sgb6Pg4Vq6_ZcBjjM3-65" value="System displays confirmation message" style="shape=parallelogram;perimeter=parallelogramPerimeter;whiteSpace=wrap;html=1;fixedSize=1;" vertex="1" parent="f1sgb6Pg4Vq6_ZcBjjM3-29">
          <mxGeometry x="360" y="260" width="152.5" height="60" as="geometry" />
        </mxCell>
        <mxCell id="f1sgb6Pg4Vq6_ZcBjjM3-77" value="" style="edgeStyle=orthogonalEdgeStyle;rounded=0;orthogonalLoop=1;jettySize=auto;html=1;" edge="1" parent="f1sgb6Pg4Vq6_ZcBjjM3-29" source="f1sgb6Pg4Vq6_ZcBjjM3-74" target="f1sgb6Pg4Vq6_ZcBjjM3-76">
          <mxGeometry relative="1" as="geometry" />
        </mxCell>
        <mxCell id="f1sgb6Pg4Vq6_ZcBjjM3-74" value="Return to dashboard" style="whiteSpace=wrap;html=1;" vertex="1" parent="f1sgb6Pg4Vq6_ZcBjjM3-29">
          <mxGeometry x="543" y="260" width="120" height="60" as="geometry" />
        </mxCell>
        <mxCell id="f1sgb6Pg4Vq6_ZcBjjM3-76" value="End" style="whiteSpace=wrap;html=1;shape=ellipse;perimeter=ellipsePerimeter;" vertex="1" parent="f1sgb6Pg4Vq6_ZcBjjM3-29">
          <mxGeometry x="701" y="260.5" width="96" height="59" as="geometry" />
        </mxCell>
        <mxCell id="cDPyT4MzXzX4fcG6GiPI-3" value="Dashboard Interaction" style="swimlane;startSize=20;horizontal=0;html=1;" vertex="1" parent="f1sgb6Pg4Vq6_ZcBjjM3-27">
          <mxGeometry x="20" y="775" width="1205" height="315" as="geometry" />
        </mxCell>
        <mxCell id="f1sgb6Pg4Vq6_ZcBjjM3-30" value="Generate Summary / Report" style="swimlane;startSize=20;horizontal=0;html=1;" vertex="1" parent="f1sgb6Pg4Vq6_ZcBjjM3-27">
          <mxGeometry x="20" y="1090" width="1205" height="315" as="geometry" />
        </mxCell>
      </root>
    </mxGraphModel>
  </diagram>
</mxfile>
